<svg xmlns="http://www.w3.org/2000/svg" width="18.87" height="30.82" viewBox="0 0 18.87 30.82">
  <title>S</title>
  <g id="Layer_2" data-name="Layer 2">
    <g id="Layer_2-2" data-name="Layer 2">
      <path d="M18.87,22.44A7.35,7.35,0,0,1,16,28.61,12.45,12.45,0,0,1,8.2,30.82,19.52,19.52,0,0,1,0,29.45V26.09a21.6,21.6,0,0,0,4,1.23,21.15,21.15,0,0,0,4.31.45,8.69,8.69,0,0,0,5.25-1.32,4.34,4.34,0,0,0,1.76-3.68,4.73,4.73,0,0,0-.63-2.55,5.81,5.81,0,0,0-2.09-1.84,29.26,29.26,0,0,0-4.46-1.91,14.24,14.24,0,0,1-6-3.55A7.83,7.83,0,0,1,.39,7.57,6.66,6.66,0,0,1,3,2.05,10.82,10.82,0,0,1,9.88,0a20.31,20.31,0,0,1,8.22,1.64L17,4.68A18.58,18.58,0,0,0,9.8,3.12,7,7,0,0,0,5.48,4.31a3.92,3.92,0,0,0-1.56,3.3,5.06,5.06,0,0,0,.57,2.55A5.41,5.41,0,0,0,6.43,12a24.08,24.08,0,0,0,4.17,1.84q4.72,1.68,6.49,3.61A7.1,7.1,0,0,1,18.87,22.44Z" fill="#fff"/>
    </g>
  </g>
</svg>
